<svg xmlns="http://www.w3.org/2000/svg" id="baseline-account_circle-24px" width="48" height="48" viewBox="0 0 48 48">
    <defs>
        <style>
            .cls-1{fill:none}
        </style>
    </defs>
    <path id="Path_93" d="M24 2a22 22 0 1 0 22 22A22.008 22.008 0 0 0 24 2zm0 6.6a6.6 6.6 0 1 1-6.6 6.6A6.591 6.591 0 0 1 24 8.6zm0 31.24a15.841 15.841 0 0 1-13.2-7.084c.066-4.378 8.8-6.776 13.2-6.776 4.378 0 13.134 2.4 13.2 6.776A15.841 15.841 0 0 1 24 39.84z" data-name="Path 93"/>
    <path id="Path_94" d="M0 0h48v48H0z" class="cls-1" data-name="Path 94"/>
</svg>
