<?xml version="1.0" encoding="utf-8"?>
<!-- Generator: Adobe Illustrator 23.0.0, SVG Export Plug-In . SVG Version: 6.00 Build 0)  -->
<svg version="1.1" xmlns="http://www.w3.org/2000/svg" xmlns:xlink="http://www.w3.org/1999/xlink" x="0px" y="0px"
	 viewBox="0 0 1024 1024" style="enable-background:new 0 0 1024 1024;" xml:space="preserve">
<style type="text/css">
	.st0{fill:url(#SVGID_1_);}
	.st1{fill:#FFFFFF;stroke:#FFFFFF;stroke-width:32;stroke-miterlimit:10;}
	.st2{fill:none;stroke:#FFFFFF;stroke-width:32;stroke-miterlimit:10;}
	.st3{fill:#FFFFFF;stroke:#FFFFFF;stroke-width:8;stroke-miterlimit:10;}
	.st4{fill:none;stroke:#FFFFFF;stroke-width:16;stroke-miterlimit:10;}
	.st5{fill:#FFFFFF;stroke:#FFFFFF;stroke-miterlimit:10;}
</style>
<g id="Layer_1">
</g>
<g id="Layer_2">
	<linearGradient id="SVGID_1_" gradientUnits="userSpaceOnUse" x1="149.9613" y1="150.9613" x2="874.0387" y2="875.0387">
		<stop  offset="0" style="stop-color:#3B6CE4"/>
		<stop  offset="0.1884" style="stop-color:#3575E1"/>
		<stop  offset="0.5015" style="stop-color:#238FDA"/>
		<stop  offset="0.8985" style="stop-color:#07B8CF"/>
		<stop  offset="0.9944" style="stop-color:#00C3CC"/>
	</linearGradient>
	<circle class="st0" cx="512" cy="513" r="512"/>
	<path class="st1" d="M588,535"/>
	<path class="st1" d="M507,535"/>
</g>
<g id="Layer_3">
	<path class="st2" d="M501.2,534.8c0,0,44.4,0.8,44.4,44.4c0,43.6,0,43.6,0,43.6s-5,43.2,43.2,43.2s72.2,0,72.2,0"/>
	<path class="st3" d="M480,673"/>
	<path class="st3" d="M480,437"/>
	<line class="st1" x1="674" y1="535" x2="866" y2="535"/>
	<path class="st2" d="M715,535c0,0-44.4-0.8-44.4-44.4s0-43.6,0-43.6s-5-43.2,43.2-43.2S823,404,823,404"/>
	<circle class="st4" cx="860" cy="404" r="42"/>
	<circle class="st4" cx="465" cy="535" r="42"/>
	<circle class="st4" cx="908" cy="535" r="42"/>
	<circle class="st4" cx="702" cy="666" r="42"/>
	<circle class="st4" cx="630" cy="535" r="42"/>
	<g>
		<path class="st5" d="M374.6,349.6l-195.8-56.9c-3.6-1.1-9,0-12,2.2l-17.4,13.2c-3,2.3-2.5,5,1.1,6.1l196.2,56.9
			c3.6,1.1,6.6,5,6.6,8.8h0v3.7l27.9-21.1v-4.1C381.2,354.7,378.3,350.7,374.6,349.6z"/>
		<path class="st5" d="M414.7,326.2l-240.4-69.8c-2.7-0.7-2.7-0.7-2.7-0.7c-2.8,1.2-7.6,4.1-10.6,6.4L95.5,312c-3.1,2.4-3.1,3-3.1,3
			c0,3.8,0,10,0,13.7v324c0,3.8,3,7.7,6.6,8.8l235.6,68.3c3.6,1.1,6.6-1.2,6.6-5V395.8c0-0.2,0-0.5,0-0.7L340,396l1.1-0.8
			c-0.3-3.6-3.2-7.1-6.6-8.1l-15.4-4.4v0L118,324.3c-3.6-1-4.1-3.8-1.1-6.1l51.4-39.1c3-2.3,8.4-3.3,12-2.2l216.5,62.9
			c3.5,1,6.4,4.7,6.6,8.3l17.8-13.4C421.1,330.7,418.4,327.3,414.7,326.2z"/>
	</g>
	<line class="st1" x1="339" y1="536" x2="420" y2="536"/>
	<line class="st1" x1="507" y1="536" x2="588" y2="536"/>
</g>
</svg>
